<svg width="220" height="220" viewBox="0 0 220 220" fill="none" xmlns="http://www.w3.org/2000/svg">
<path d="M213.125 47.0509C205.388 50.4125 197.202 52.6273 188.826 53.6251C197.629 48.4705 204.249 40.2814 207.445 30.5938C199.122 35.4604 190.032 38.8751 180.563 40.6915C176.576 36.5129 171.781 33.1887 166.469 30.921C161.157 28.6533 155.44 27.4894 149.664 27.5001C126.281 27.5001 107.357 46.1485 107.357 69.1368C107.341 72.3344 107.707 75.5224 108.449 78.6329C91.6811 77.8468 75.262 73.5694 60.2421 66.0742C45.2222 58.5791 31.9322 48.0312 21.2223 35.1055C17.465 41.4397 15.4779 48.6667 15.4688 56.0313C15.4688 70.4688 23.0012 83.2305 34.375 90.7071C27.6363 90.5472 21.0357 88.7636 15.1336 85.5079V86.0235C15.1336 106.219 29.743 123.02 49.0789 126.844C45.4428 127.813 41.6959 128.304 37.9328 128.305C35.2626 128.309 32.5985 128.05 29.9793 127.531C35.3547 144.074 50.9996 156.106 69.532 156.449C54.4731 168.055 35.9847 174.327 16.9727 174.281C13.598 174.276 10.2264 174.075 6.875 173.68C26.216 186.03 48.6984 192.563 71.6461 192.5C149.574 192.5 192.148 129.035 192.148 73.9923C192.148 72.1876 192.1 70.3829 192.014 68.6212C200.278 62.7433 207.426 55.4388 213.125 47.0509V47.0509Z" fill="black"/>
</svg>
