<svg width="220" height="220" viewBox="0 0 220 220" fill="none" xmlns="http://www.w3.org/2000/svg">
<path d="M199.182 116.931H171.875V96.2199C171.875 94.9824 171.837 93.7693 171.759 92.5805C184.465 80.6008 185.617 64.8098 185.625 48.3227C185.625 44.6231 182.772 41.4477 179.073 41.2715C178.145 41.228 177.218 41.3729 176.348 41.6975C175.477 42.0221 174.682 42.5196 174.009 43.1601C173.337 43.8006 172.801 44.5708 172.434 45.4241C172.067 46.2774 171.877 47.1962 171.875 48.125C171.875 60.1563 171.076 68.8145 167.621 75.5563C159.363 57.8746 139.357 48.0949 110 48.0949C92.8988 48.0949 78.1218 52.018 67.2765 59.4344C60.8742 63.8129 56.0187 69.2785 52.7961 75.6422C48.9847 69.0293 48.1254 60.5859 48.1254 48.3227C48.1254 44.6231 45.2894 41.4477 41.5941 41.2586C40.6635 41.212 39.7331 41.3551 38.8595 41.6791C37.9859 42.0032 37.1872 42.5014 36.5121 43.1436C35.8369 43.7858 35.2994 44.5585 34.9321 45.4148C34.5648 46.2712 34.3753 47.1932 34.3753 48.125C34.3753 64.2942 35.4968 79.8059 48.3144 91.7942C48.1912 93.2436 48.1282 94.7189 48.1254 96.2199V116.931H20.8187C17.1191 116.931 13.9437 119.775 13.7589 123.475C13.7141 124.405 13.8588 125.335 14.1842 126.208C14.5095 127.08 15.0088 127.878 15.6518 128.552C16.2947 129.226 17.0678 129.762 17.9243 130.128C18.7807 130.494 19.7026 130.682 20.6339 130.681H48.1339V137.5C48.1276 145.405 49.6433 153.238 52.5984 160.57C41.5683 170.431 34.4527 181.328 34.3753 199.091C34.3753 202.847 37.2199 206.095 40.9753 206.246C41.9007 206.283 42.824 206.132 43.6898 205.804C44.5557 205.475 45.3462 204.975 46.0139 204.333C46.6817 203.692 47.2129 202.922 47.5757 202.07C47.9386 201.218 48.1255 200.301 48.1254 199.375C48.1254 187.49 52.0355 180.164 59.3703 173.027C67.8285 185.066 80.2907 193.707 94.5316 197.407C95.5475 197.669 96.6099 197.696 97.6375 197.484C98.6651 197.272 99.6306 196.828 100.46 196.186C101.29 195.543 101.961 194.72 102.423 193.778C102.885 192.836 103.125 191.8 103.125 190.751V82.6934C103.125 78.9938 105.97 75.8184 109.669 75.6336C110.599 75.5888 111.528 75.7332 112.4 76.0581C113.272 76.3829 114.069 76.8815 114.743 77.5235C115.417 78.1655 115.953 78.9376 116.32 79.793C116.686 80.6484 116.875 81.5694 116.875 82.5V190.751C116.875 191.8 117.116 192.836 117.578 193.778C118.04 194.72 118.711 195.543 119.541 196.186C120.37 196.828 121.336 197.272 122.363 197.484C123.391 197.696 124.453 197.669 125.469 197.407C139.708 193.705 152.168 185.064 160.626 173.027C167.931 180.134 171.837 187.43 171.871 199.216C171.856 200.994 172.518 202.71 173.723 204.017C174.928 205.324 176.586 206.122 178.359 206.25C179.295 206.303 180.231 206.165 181.111 205.843C181.99 205.522 182.795 205.024 183.475 204.38C184.156 203.736 184.698 202.96 185.067 202.1C185.437 201.239 185.627 200.312 185.625 199.375C185.625 181.466 178.493 170.487 167.411 160.57C170.366 153.238 171.882 145.405 171.875 137.5V130.681H199.375C200.307 130.682 201.229 130.494 202.085 130.128C202.941 129.762 203.715 129.226 204.358 128.552C205 127.878 205.5 127.08 205.825 126.208C206.151 125.335 206.295 124.405 206.25 123.475C206.07 119.775 202.882 116.931 199.182 116.931Z" fill="black"/>
<path d="M138.098 44.6875L138.235 44.7262C144.066 46.359 149.007 40.193 146.055 34.9078C142.488 28.4981 137.273 23.1574 130.95 19.4378C124.628 15.7182 117.426 13.7546 110.09 13.75H109.91C102.5 13.755 95.2291 15.7585 88.8626 19.5494C82.496 23.3403 77.2698 28.7782 73.7346 35.2902C70.7956 40.6957 75.9432 46.8918 81.8299 45.1129C90.2991 42.5348 99.7866 41.2199 110 41.2199C120.351 41.2199 129.805 42.3887 138.098 44.6875Z" fill="black"/>
</svg>
