<svg width="220" height="220" viewBox="0 0 220 220" fill="none" xmlns="http://www.w3.org/2000/svg">
<path d="M144.139 110C144.133 93.6993 148.445 77.6879 156.634 63.5938L159.908 57.8961C153.045 56.2627 146.051 55.2347 139.008 54.8238C129.581 47.5621 115.53 38.9469 99.3309 36.2055L89.375 34.375L95.1199 60.9555C77.2148 67.0313 61.4195 79.3719 50.9652 87.8625C48.9428 86.1695 46.8259 84.5152 44.6145 82.8996C27.5516 70.4387 9.12227 69.2355 8.34883 69.1926L0 68.75L1.14727 77.0473C1.27188 77.9066 4.06484 96.2672 14.7469 109.927C4.06484 123.591 1.28906 141.939 1.14727 142.811L0 151.25L8.34883 150.666C9.12227 150.623 27.5516 149.424 44.6145 136.959C46.7858 135.374 48.8712 133.746 50.8707 132.073C61.3422 140.594 77.1418 152.956 95.0684 159.032L89.375 185.625L99.3309 183.812C115.44 181.087 129.443 172.468 138.862 165.198C146.004 164.785 153.095 163.745 160.054 162.091L156.655 156.428C148.457 142.329 144.138 126.31 144.139 110V110Z" fill="black"/>
<path d="M214.668 95.2832C212.154 91.0378 207.561 84.5839 199.977 77.9753C192.082 71.1763 183.068 65.7972 173.336 62.0769L168.536 70.4687C161.569 82.4665 157.895 96.0926 157.889 109.967C157.882 123.841 161.542 137.471 168.498 149.475L173.546 157.884C183.177 154.209 192.105 148.906 199.938 142.205C213.576 130.397 220 115.586 220 110C220 104.71 216.562 98.5101 214.668 95.2832ZM178.75 110C177.39 110 176.061 109.597 174.93 108.841C173.8 108.086 172.919 107.012 172.398 105.756C171.878 104.5 171.742 103.117 172.007 101.784C172.272 100.45 172.927 99.2251 173.889 98.2636C174.85 97.3021 176.075 96.6473 177.409 96.382C178.742 96.1168 180.125 96.2529 181.381 96.7733C182.637 97.2936 183.711 98.1748 184.466 99.3054C185.222 100.436 185.625 101.765 185.625 103.125C185.625 104.948 184.901 106.697 183.611 107.986C182.322 109.276 180.573 110 178.75 110Z" fill="black"/>
</svg>
