<svg width="178" height="220" viewBox="0 0 178 220" fill="none" xmlns="http://www.w3.org/2000/svg">
<path d="M171.154 48.125C142.563 55.825 120 61.875 89 61.875C57.9998 61.875 35.4374 55.825 6.84615 48.125L0 70.0391C20.5385 78.8606 41.3807 85.1469 62.9846 92.8984L41.0769 213.125L65.2096 220L84.7212 144.375H93.2788L112.79 220L136.923 213.125L115.015 92.8984C136.606 85.9074 157.462 78.8606 178 70.4688L171.154 48.125ZM89 48.125C84.2609 48.125 79.6281 46.7138 75.6877 44.0697C71.7472 41.4257 68.676 37.6677 66.8624 33.2708C65.0488 28.874 64.5743 24.0358 65.4989 19.3682C66.4234 14.7005 68.7056 10.413 72.0566 7.04775C75.4077 3.68255 79.6772 1.39082 84.3253 0.462365C88.9734 -0.466092 93.7913 0.0104261 98.1697 1.83166C102.548 3.65289 106.29 6.73704 108.923 10.6941C111.556 14.6512 112.962 19.3034 112.962 24.0625C112.955 30.4422 110.428 36.5586 105.936 41.0697C101.444 45.5808 95.3529 48.1182 89 48.125V48.125Z" fill="black"/>
</svg>
