<svg width="220" height="220" viewBox="0 0 220 220" fill="none" xmlns="http://www.w3.org/2000/svg">
<path d="M210.714 78.5254C208.329 72.8579 204.367 68.7715 199.254 66.7133L199.185 66.6876C196.858 65.776 194.38 65.3096 191.881 65.3126H191.606C179.901 65.4887 167.951 75.436 161.876 90.0669C157.42 100.766 156.909 112.273 160.509 120.85C162.89 126.522 166.86 130.608 171.995 132.666L172.051 132.688C174.378 133.598 176.856 134.065 179.355 134.063C191.172 134.063 203.246 124.115 209.434 109.291C213.834 98.6047 214.319 87.1063 210.714 78.5254ZM163.947 141.629C157.196 137.573 150.816 133.736 146.648 126.844C135.149 107.766 128.205 96.2501 110 96.2501C91.7937 96.2501 84.8327 107.766 73.3085 126.844C69.1319 133.745 62.7382 137.586 55.9663 141.659C48.2019 146.326 40.1796 151.147 36.7163 160.634C35.37 164.055 34.6917 167.701 34.7183 171.377C34.7183 186.824 46.7495 199.392 61.5308 199.392C69.1577 199.392 77.2745 196.75 85.864 193.952C94.1226 191.263 102.66 188.482 110.042 188.482C117.425 188.482 125.941 191.263 134.169 193.952C142.742 196.732 150.82 199.375 158.468 199.375C173.228 199.375 185.238 186.807 185.238 171.359C185.25 167.681 184.557 164.035 183.197 160.617C179.734 151.121 171.707 146.296 163.947 141.629ZM64.4526 81.1465C69.5659 87.5618 76.0542 91.0938 82.723 91.0938C83.6333 91.0938 84.5425 91.0263 85.4429 90.8919C99.3519 88.8465 108.019 71.8739 105.174 52.22C103.984 43.9571 100.804 36.2614 96.2495 30.5551C91.1448 24.1528 84.648 20.625 77.9835 20.625C77.0731 20.6251 76.164 20.6926 75.2636 20.827C61.3546 22.8723 52.6878 39.845 55.5323 59.4989C56.7183 67.7489 59.898 75.436 64.4526 81.1465ZM134.56 90.8919C135.461 91.0263 136.37 91.0938 137.28 91.0938C143.953 91.0938 150.437 87.5618 155.551 81.1465C160.101 75.436 163.264 67.7489 164.467 59.4903C167.311 39.845 158.644 22.8723 144.735 20.8184C143.835 20.684 142.926 20.6165 142.016 20.6165C135.351 20.625 128.854 24.1528 123.75 30.5551C119.195 36.2614 116.015 43.9571 114.829 52.2286C111.985 71.8739 120.651 88.8465 134.56 90.8919ZM47.9483 132.688L48.0085 132.666C53.1347 130.608 57.1007 126.526 59.4769 120.858C63.0776 112.265 62.5706 100.77 58.1233 90.0711C51.9659 75.2641 39.896 65.3126 28.0925 65.3126C25.5929 65.3089 23.115 65.7754 20.7878 66.6876L20.7276 66.709C15.6144 68.7501 11.6483 72.8493 9.27218 78.5168C5.6714 87.1106 6.17843 98.6047 10.6257 109.304C16.7831 124.111 28.853 134.063 40.6566 134.063C43.1518 134.065 45.6252 133.598 47.9483 132.688V132.688Z" fill="black"/>
</svg>
