<svg width="220" height="220" viewBox="0 0 220 220" fill="none" xmlns="http://www.w3.org/2000/svg">
<g clip-path="url(#clip0_549_502)">
<path d="M109.893 48.125C123.182 48.125 133.955 37.3519 133.955 24.0625C133.955 10.7731 123.182 0 109.893 0C96.6032 0 85.8301 10.7731 85.8301 24.0625C85.8301 37.3519 96.6032 48.125 109.893 48.125Z" fill="black"/>
<path d="M169.568 119.41L165.129 104.625V104.577L155.479 72.4108H155.457L154.379 68.78C153.195 64.7986 150.757 61.3061 147.427 58.8223C144.098 56.3386 140.056 54.9964 135.902 54.9956H84.3395C80.1854 54.9943 76.142 56.3357 72.8124 58.8198C69.4827 61.3039 67.0451 64.7976 65.863 68.78L64.7845 72.4108H64.7587L55.1079 104.577V104.625L50.652 119.41C49.3114 123.875 51.6403 128.717 56.0532 130.212C57.1464 130.585 58.3035 130.733 59.4552 130.648C60.6069 130.563 61.7296 130.246 62.7564 129.718C63.7831 129.189 64.6928 128.459 65.4311 127.571C66.1693 126.683 66.721 125.655 67.0532 124.549L78.0446 87.9183L78.977 84.8116C79.2493 84.0524 79.7799 83.4131 80.476 83.0055C81.1721 82.598 81.9893 82.4482 82.7846 82.5824C83.58 82.7166 84.3028 83.1262 84.8266 83.7395C85.3505 84.3528 85.642 85.1309 85.6501 85.9374C85.6499 86.1699 85.6254 86.4018 85.577 86.6292L66.7868 149.273C66.4787 150.3 66.4148 151.384 66.6003 152.44C66.7857 153.495 67.2153 154.493 67.8549 155.353C68.4944 156.213 69.3261 156.911 70.2836 157.392C71.2412 157.874 72.2979 158.125 73.3696 158.125H85.8306V207.406C85.8306 214.478 90.3552 220 96.1431 220C101.931 220 106.456 214.478 106.456 207.406V158.125H113.331V207.406C113.331 214.478 117.855 220 123.643 220C129.431 220 133.956 214.478 133.956 207.406V158.125H146.846C147.918 158.125 148.976 157.875 149.934 157.394C150.892 156.913 151.724 156.214 152.364 155.354C153.004 154.494 153.434 153.496 153.62 152.441C153.805 151.385 153.742 150.3 153.433 149.273L134.639 86.6206C134.592 86.396 134.569 86.1669 134.57 85.9374C134.574 85.1284 134.864 84.3468 135.388 83.7303C135.912 83.1137 136.636 82.7017 137.434 82.5667C138.232 82.4317 139.051 82.5824 139.749 82.9922C140.446 83.4021 140.977 84.0448 141.247 84.8073L142.18 87.914L153.167 124.545C153.5 125.649 154.053 126.675 154.792 127.561C155.53 128.448 156.44 129.176 157.466 129.703C158.492 130.231 159.614 130.546 160.764 130.63C161.915 130.715 163.07 130.567 164.163 130.195C168.575 128.717 170.904 123.875 169.568 119.41Z" fill="black"/>
</g>
<defs>
<clipPath id="clip0_549_502">
<rect width="220" height="220" fill="white"/>
</clipPath>
</defs>
</svg>
