<svg width="220" height="220" viewBox="0 0 220 220" fill="none" xmlns="http://www.w3.org/2000/svg">
<path d="M188.508 68.5051C180.946 56.3406 168.957 49.6848 151.864 48.1508C142.059 47.2914 130.281 50.2734 120.82 52.684C116.557 53.7711 111.719 55 110 55C108.281 55 103.477 53.7711 99.2578 52.684C89.7703 50.2563 77.9625 47.2313 68.127 48.1551C51.5711 49.7063 39.7676 56.4008 32.0332 68.6168C24.2988 80.8328 20.625 98.3984 20.625 123.75C20.625 150.081 33.3137 172.984 40.8762 184.289C50.1961 198.232 64.1309 213.125 75.2812 213.125C83.2605 213.125 89.9422 210.018 95.8289 207.264C104.414 203.242 110 202.813 110 202.813C110 202.813 114.727 202.813 123.724 207.157C129.615 210.001 136.34 213.125 144.719 213.125C156.14 213.125 170.105 198.219 179.364 184.272C186.837 173.014 199.375 150.184 199.375 123.75C199.375 97.9688 195.937 80.4246 188.508 68.5051ZM92.8125 151.25C87.1191 151.25 82.5 142.016 82.5 130.625C82.5 119.234 87.1191 110 92.8125 110C98.5059 110 103.125 119.234 103.125 130.625C103.125 142.016 98.5059 151.25 92.8125 151.25ZM127.188 151.25C121.494 151.25 116.875 142.016 116.875 130.625C116.875 119.234 121.494 110 127.188 110C132.881 110 137.5 119.234 137.5 130.625C137.5 142.016 132.881 151.25 127.188 151.25Z" fill="black"/>
<path d="M139.099 35.5609C151.972 22.6961 151.25 6.95232 151.25 6.93513C151.25 6.91794 135.88 5.3195 122.362 18.8246C108.845 32.3297 110.026 48.125 110.026 48.125C110.026 48.125 126.217 48.4301 139.099 35.5609Z" fill="black"/>
</svg>
