<svg width="220" height="220" viewBox="0 0 220 220" fill="none" xmlns="http://www.w3.org/2000/svg">
<path d="M170.156 185.625H58.4375C42.7797 185.625 28.2047 180.224 17.398 170.41C6.17891 160.222 0 146.094 0 130.625C0 114.907 5.75352 101.355 16.6375 91.4288C24.4191 84.3261 34.7789 79.2901 46.3633 76.8753C47.4311 76.6543 48.431 76.1826 49.2804 75.4989C50.1299 74.8153 50.8046 73.9395 51.2488 72.9436C55.3733 63.659 61.5513 55.4315 69.3172 48.8811C80.6781 39.3979 94.7461 34.3749 110 34.3749C127.159 34.3002 143.671 40.9122 156.037 52.8085C166.663 63.0393 173.869 76.5616 177.169 92.3397C177.434 93.6336 178.066 94.8238 178.989 95.7679C179.913 96.712 181.089 97.3701 182.377 97.6636C201.953 102.016 220 116.2 220 140.937C220 155.285 214.741 167.054 204.785 174.982C196.036 181.942 184.065 185.625 170.156 185.625Z" fill="black"/>
</svg>
