<svg width="220" height="200" viewBox="0 0 220 200" fill="none" xmlns="http://www.w3.org/2000/svg">
<path d="M169.4 77.1719C164.074 64.3244 156.31 52.4255 146.463 42.0156C129.422 24.082 103.125 12.5 82.5 12.5C90.6641 39.8438 76.3297 58.25 63.2543 76.4727C52.4219 91.5469 41.25 107.137 41.25 125C41.25 159.461 72.093 187.5 110 187.5C147.907 187.5 178.75 159.461 178.75 125C178.75 108.086 175.605 91.9961 169.4 77.1719ZM123.892 163.551C119.453 167.848 113.889 168.75 110 168.75C106.111 168.75 100.547 167.848 96.1082 163.551C91.6695 159.254 89.375 152.437 89.375 143.75C89.375 133.93 93.1648 126.453 96.8258 119.227C99.6102 113.73 103.125 108.594 103.318 101.848C108.174 104.145 113.489 108.453 118.16 114.066C125.967 123.441 130.621 134.543 130.621 143.754C130.625 152.438 128.296 159.285 123.892 163.551Z" fill="black"/>
</svg>
