<svg width="220" height="220" viewBox="0 0 220 220" fill="none" xmlns="http://www.w3.org/2000/svg">
<path d="M34.375 206.25C32.5516 206.25 30.803 205.526 29.5136 204.236C28.2243 202.947 27.5 201.198 27.5 199.375V29.2746C27.5005 27.4733 27.9728 25.7035 28.8699 24.1415C29.767 22.5795 31.0576 21.2797 32.6133 20.3715C37.8125 17.3508 48.2883 13.75 68.75 13.75C84.7387 13.75 102.622 20.0707 118.4 25.6438C131.106 30.134 143.107 34.375 151.25 34.375C161.732 34.3428 172.103 32.2249 181.758 28.1445C182.934 27.6482 184.214 27.4506 185.485 27.5692C186.755 27.6878 187.977 28.119 189.04 28.8244C190.104 29.5298 190.976 30.4874 191.58 31.6118C192.184 32.7362 192.5 33.9925 192.5 35.2688V129.525C192.498 131.196 192.01 132.83 191.094 134.227C190.178 135.624 188.875 136.724 187.344 137.393C183.601 139.03 169.937 144.375 151.25 144.375C140.877 144.375 127.884 141.307 114.129 138.054C98.6691 134.402 82.6848 130.625 68.75 130.625C52.9074 130.625 44.7992 133.023 41.25 134.539V199.375C41.25 201.198 40.5257 202.947 39.2364 204.236C37.947 205.526 36.1984 206.25 34.375 206.25Z" fill="black"/>
</svg>
