<svg width="220" height="220" viewBox="0 0 220 220" fill="none" xmlns="http://www.w3.org/2000/svg">
<path d="M83.712 213.125C82.5601 213.126 81.4219 212.875 80.3775 212.389C79.3331 211.903 78.4078 211.194 77.6666 210.313C76.9253 209.431 76.3861 208.398 76.0869 207.285C75.7877 206.173 75.7357 205.008 75.9346 203.874V203.827L88.0131 137.5H41.2502C39.9522 137.5 38.6808 137.132 37.583 136.44C36.4852 135.747 35.6058 134.758 35.0466 133.587C34.4875 132.415 34.2713 131.11 34.4232 129.821C34.5751 128.531 35.0888 127.312 35.9049 126.302L130.08 9.88282C131.151 8.5221 132.64 7.54993 134.316 7.11496C135.993 6.68 137.766 6.80618 139.364 7.47423C140.963 8.14227 142.298 9.31539 143.166 10.8142C144.035 12.313 144.389 14.055 144.173 15.7738C144.173 15.9027 144.139 16.0273 144.117 16.1563L131.996 82.5H178.75C180.048 82.5001 181.32 82.8677 182.418 83.5603C183.515 84.2528 184.395 85.2419 184.954 86.4133C185.513 87.5847 185.729 88.8904 185.577 90.1795C185.425 91.4686 184.912 92.6883 184.096 93.6977L89.9081 210.117C89.168 211.052 88.2265 211.808 87.1537 212.329C86.0809 212.85 84.9045 213.122 83.712 213.125V213.125Z" fill="black"/>
</svg>
