<svg width="220" height="220" viewBox="0 0 220 220" fill="none" xmlns="http://www.w3.org/2000/svg">
<path d="M110 128.477C120.204 128.477 128.477 120.204 128.477 110C128.477 99.7957 120.204 91.5234 110 91.5234C99.7957 91.5234 91.5234 99.7957 91.5234 110C91.5234 120.204 99.7957 128.477 110 128.477Z" fill="black"/>
<path d="M204.501 130.586C208.612 126.542 211.423 121.365 212.577 115.715C213.73 110.065 213.173 104.2 210.977 98.8681C208.781 93.5365 205.045 88.9806 200.247 85.7826C195.448 82.5846 189.806 80.8897 184.039 80.9144C182.802 80.9144 181.375 80.9745 179.773 81.0991C180.954 80.0851 182.02 79.114 182.922 78.2159C186.978 74.1443 189.74 68.9645 190.86 63.3276C191.98 57.6908 191.409 51.8486 189.218 46.5355C187.027 41.2224 183.315 36.6756 178.547 33.4668C173.779 30.2579 168.169 28.5303 162.422 28.5011H162.314C158.491 28.5035 154.707 29.2643 151.18 30.7394C147.653 32.2145 144.453 34.3747 141.767 37.0948C140.86 38.0015 139.889 39.0671 138.879 40.2444C139.004 38.6331 139.068 37.2065 139.068 35.9776C139.068 28.2637 136.004 20.8656 130.549 15.411C125.095 9.95645 117.697 6.89209 109.983 6.89209C102.269 6.89209 94.8708 9.95645 89.4162 15.411C83.9616 20.8656 80.8973 28.2637 80.8973 35.9776C80.8973 37.2108 80.9617 38.6374 81.0863 40.2444C80.0723 39.0671 79.1012 38.0015 78.1988 37.0948C75.5124 34.3747 72.313 32.2145 68.786 30.7394C65.2589 29.2643 61.4743 28.5035 57.6512 28.5011H57.5781C51.8401 28.5469 46.243 30.2837 41.487 33.4942C36.731 36.7047 33.0274 41.2464 30.8394 46.5511C28.6514 51.8557 28.0762 57.6878 29.1858 63.3177C30.2954 68.9476 33.0405 74.1253 37.0777 78.203C37.9801 79.1011 39.0457 80.0722 40.2316 81.0905C38.6246 80.9659 37.198 80.9015 35.9605 80.9015C28.2466 80.9015 20.8486 83.9658 15.394 89.4204C9.93936 94.875 6.875 102.273 6.875 109.987C6.875 117.701 9.93936 125.099 15.394 130.554C20.8486 136.008 28.2466 139.073 35.9605 139.073C37.1895 139.073 38.616 139.008 40.2273 138.883C39.05 139.893 37.9844 140.864 37.0777 141.771C33.0015 145.829 30.223 151.007 29.0949 156.647C27.9667 162.288 28.5398 168.136 30.7415 173.45C32.9431 178.764 36.674 183.304 41.4605 186.494C46.2471 189.683 51.8734 191.379 57.6254 191.366H57.7328C61.5322 191.371 65.2955 190.629 68.8079 189.18C72.3202 187.731 75.5127 185.605 78.2031 182.922C79.1012 182.02 80.0723 180.954 81.0863 179.773C80.966 181.375 80.9016 182.802 80.9016 184.039C80.9016 191.753 83.9659 199.151 89.4205 204.606C94.8751 210.061 102.273 213.125 109.987 213.125C117.701 213.125 125.099 210.061 130.554 204.606C136.008 199.151 139.073 191.753 139.073 184.039C139.073 182.806 139.008 181.38 138.884 179.768C139.898 180.95 140.869 182.02 141.771 182.922C144.462 185.609 147.656 187.739 151.171 189.19C154.686 190.641 158.452 191.384 162.254 191.378H162.362C168.117 191.402 173.749 189.714 178.541 186.527C183.334 183.341 187.07 178.801 189.274 173.485C191.479 168.169 192.052 162.317 190.921 156.674C189.79 151.031 187.005 145.852 182.922 141.797C182.016 140.89 180.95 139.919 179.773 138.909C181.384 139.034 182.811 139.098 184.039 139.098C187.842 139.095 191.607 138.342 195.118 136.881C198.63 135.421 201.818 133.281 204.501 130.586V130.586ZM110 146.523C102.776 146.523 95.7149 144.381 89.7087 140.368C83.7024 136.355 79.0211 130.651 76.2567 123.977C73.4924 117.303 72.7691 109.959 74.1784 102.875C75.5876 95.7897 79.0661 89.2818 84.174 84.1739C89.2819 79.066 95.7898 75.5875 102.875 74.1783C109.959 72.769 117.303 73.4923 123.977 76.2566C130.651 79.021 136.355 83.7023 140.368 89.7086C144.381 95.7148 146.523 102.776 146.523 110C146.512 119.683 142.66 128.966 135.813 135.813C128.966 142.66 119.683 146.512 110 146.523Z" fill="black"/>
</svg>
