<svg width="220" height="220" viewBox="0 0 220 220" fill="none" xmlns="http://www.w3.org/2000/svg">
<path d="M34.375 178.75C34.375 186.043 37.2723 193.038 42.4296 198.195C47.5868 203.353 54.5815 206.25 61.875 206.25H101.406C101.862 206.25 102.299 206.069 102.622 205.747C102.944 205.424 103.125 204.987 103.125 204.531V125.469C103.125 125.013 102.944 124.576 102.622 124.253C102.299 123.931 101.862 123.75 101.406 123.75H37.8125C36.9008 123.75 36.0265 124.112 35.3818 124.757C34.7372 125.401 34.375 126.276 34.375 127.188V178.75ZM103.125 108.281V61.875H116.875V108.281C116.875 108.737 117.056 109.174 117.378 109.497C117.701 109.819 118.138 110 118.594 110H178.75C181.092 110 183.417 109.6 185.625 108.818C189.643 107.392 193.121 104.758 195.583 101.277C198.044 97.7956 199.369 93.6384 199.375 89.375V82.5C199.375 77.0299 197.202 71.7839 193.334 67.9159C189.466 64.048 184.22 61.875 178.75 61.875H161.33C161.181 61.8726 161.034 61.8312 160.906 61.7548C160.777 61.6784 160.67 61.5697 160.597 61.4394C160.523 61.3092 160.484 61.1619 160.485 61.0122C160.485 60.8625 160.525 60.7156 160.6 60.5859C164.578 53.8694 165.87 45.8973 164.217 38.2681C162.564 30.6389 158.088 23.9166 151.686 19.4492C145.285 14.9818 137.431 13.0996 129.7 14.1799C121.969 15.2602 114.932 19.2232 110 25.2742C105.068 19.2232 98.0312 15.2602 90.3001 14.1799C82.569 13.0996 74.7152 14.9818 68.3136 19.4492C61.9121 23.9166 57.436 30.6389 55.7829 38.2681C54.1297 45.8973 55.4218 53.8694 59.4 60.5859C59.4749 60.7156 59.5146 60.8625 59.5152 61.0122C59.5158 61.1619 59.4773 61.3092 59.4035 61.4394C59.3297 61.5697 59.2231 61.6784 59.0944 61.7548C58.9657 61.8312 58.8192 61.8726 58.6695 61.875H41.25C35.7799 61.875 30.5339 64.048 26.6659 67.9159C22.798 71.7839 20.625 77.0299 20.625 82.5V89.375C20.6311 93.6384 21.9558 97.7956 24.4174 101.277C26.8791 104.758 30.3573 107.392 34.375 108.818C36.5828 109.6 38.9078 110 41.25 110H101.406C101.862 110 102.299 109.819 102.622 109.497C102.944 109.174 103.125 108.737 103.125 108.281ZM116.875 44.6875C116.875 41.2881 117.883 37.9651 119.772 35.1386C121.66 32.3122 124.345 30.1092 127.485 28.8083C130.626 27.5074 134.082 27.1671 137.416 27.8302C140.75 28.4934 143.812 30.1304 146.216 32.5341C148.62 34.9378 150.257 38.0003 150.92 41.3344C151.583 44.6684 151.243 48.1243 149.942 51.2649C148.641 54.4055 146.438 57.0898 143.611 58.9784C140.785 60.867 137.462 61.875 134.062 61.875H116.875V44.6875ZM84.7086 27.543C87.0633 27.3742 89.4275 27.6923 91.6538 28.4774C93.8801 29.2625 95.9209 30.4979 97.6487 32.1064C99.3766 33.715 100.755 35.6622 101.697 37.8268C102.639 39.9913 103.125 42.3268 103.125 44.6875V61.875H85.9375C81.4932 61.8636 77.2261 60.1311 74.0317 57.0411C70.8374 53.9511 68.9641 49.7439 68.8051 45.3025C68.6461 40.861 70.2137 36.5306 73.179 33.2201C76.1442 29.9096 80.2765 27.8764 84.7086 27.5473V27.543ZM118.594 206.25H158.125C165.418 206.25 172.413 203.353 177.57 198.195C182.728 193.038 185.625 186.043 185.625 178.75V127.188C185.625 126.276 185.263 125.401 184.618 124.757C183.974 124.112 183.099 123.75 182.188 123.75H118.594C118.138 123.75 117.701 123.931 117.378 124.253C117.056 124.576 116.875 125.013 116.875 125.469V204.531C116.875 204.987 117.056 205.424 117.378 205.747C117.701 206.069 118.138 206.25 118.594 206.25Z" fill="black"/>
</svg>
