<svg width="220" height="220" viewBox="0 0 220 220" fill="none" xmlns="http://www.w3.org/2000/svg">
<path d="M192.448 134.608L200.72 130.036L191.576 113.489L183.305 118.061C176.962 121.57 171.343 126.251 166.745 131.854L128.906 110L166.749 88.1461C171.347 93.7493 176.967 98.4297 183.309 101.939L191.58 106.511L200.724 89.9637L192.453 85.3918C189.131 83.5575 186.101 81.2406 183.459 78.5168L206.25 65.334L196.797 48.9844L174.023 62.1242C172.979 58.4724 172.483 54.6855 172.554 50.8879L172.73 41.4348L153.824 41.0824L153.648 50.5355C153.514 57.7764 154.752 64.9771 157.296 71.7578L119.453 93.6246V49.9211C126.603 48.7384 133.465 46.2117 139.674 42.4746L147.77 37.5977L138.011 21.4027L129.916 26.2797C126.662 28.2363 123.136 29.7002 119.453 30.6238V6.875H100.547V30.6238C96.8639 29.7002 93.338 28.2363 90.084 26.2797L81.9887 21.4027L72.2305 37.5977L80.3258 42.4746C86.5353 46.2117 93.3967 48.7384 100.547 49.9211V93.6246L62.7043 71.7578C65.2559 64.9729 66.4995 57.7661 66.3695 50.5184L66.1934 41.0652L47.2871 41.4176L47.4633 50.8707C47.5337 54.6683 47.0384 58.4553 45.9938 62.107L23.2031 48.9844L13.75 65.3555L36.5449 78.5211C33.9037 81.2449 30.8729 83.5618 27.5516 85.3961L19.2801 89.9637L28.4238 106.511L36.6953 101.939C43.0377 98.4297 48.657 93.7493 53.2555 88.1461L91.0938 110L53.2512 131.854C48.6527 126.251 43.0334 121.57 36.691 118.061L28.4238 113.489L19.2801 130.036L27.5516 134.608C30.8729 136.442 33.9037 138.759 36.5449 141.483L13.75 154.688L23.2031 171.059L45.998 157.897C47.0427 161.549 47.538 165.336 47.4676 169.134L47.2914 178.587L66.1977 178.939L66.3738 169.486C66.503 162.237 65.2579 155.028 62.7043 148.242L100.547 126.375V170.079C93.3967 171.262 86.5353 173.788 80.3258 177.525L72.2305 182.402L81.9887 198.597L90.084 193.72C93.338 191.764 96.8639 190.3 100.547 189.376V213.125H119.453V189.376C123.136 190.3 126.662 191.764 129.916 193.72L138.011 198.597L147.77 182.402L139.674 177.525C133.465 173.788 126.603 171.262 119.453 170.079V126.375L157.296 148.242C154.744 155.027 153.5 162.234 153.63 169.482L153.807 178.935L172.713 178.582L172.537 169.129C172.47 165.325 172.971 161.532 174.023 157.876L196.797 171.037L206.25 154.688L183.477 141.5C186.11 138.772 189.134 136.45 192.448 134.608V134.608Z" fill="black"/>
</svg>
