<svg width="220" height="220" viewBox="0 0 220 220" fill="none" xmlns="http://www.w3.org/2000/svg">
<path d="M110 50.7031C107.493 50.7031 105.088 49.7072 103.316 47.9344C101.543 46.1616 100.547 43.7571 100.547 41.25V20.625C100.547 18.1179 101.543 15.7134 103.316 13.9406C105.088 12.1678 107.493 11.1719 110 11.1719C112.507 11.1719 114.912 12.1678 116.684 13.9406C118.457 15.7134 119.453 18.1179 119.453 20.625V41.25C119.453 43.7571 118.457 46.1616 116.684 47.9344C114.912 49.7072 112.507 50.7031 110 50.7031ZM110 208.828C107.493 208.828 105.088 207.832 103.316 206.059C101.543 204.287 100.547 201.882 100.547 199.375V178.75C100.547 176.243 101.543 173.838 103.316 172.066C105.088 170.293 107.493 169.297 110 169.297C112.507 169.297 114.912 170.293 116.684 172.066C118.457 173.838 119.453 176.243 119.453 178.75V199.375C119.453 201.882 118.457 204.287 116.684 206.059C114.912 207.832 112.507 208.828 110 208.828ZM158.615 70.8383C156.746 70.8381 154.918 70.2837 153.364 69.2452C151.81 68.2067 150.599 66.7308 149.883 65.004C149.167 63.2771 148.98 61.3769 149.344 59.5435C149.708 57.7101 150.608 56.0258 151.929 54.7035L166.512 40.1199C168.293 38.3857 170.685 37.4225 173.171 37.4388C175.656 37.4552 178.035 38.4498 179.793 40.2074C181.55 41.9649 182.545 44.344 182.561 46.8295C182.578 49.315 181.614 51.707 179.88 53.4875L165.296 68.0711C164.42 68.9496 163.378 69.6463 162.232 70.1212C161.085 70.5961 159.856 70.8398 158.615 70.8383V70.8383ZM46.8016 182.652C44.9318 182.651 43.1041 182.097 41.5497 181.058C39.9952 180.019 38.7837 178.542 38.0685 176.814C37.3533 175.087 37.1665 173.186 37.5316 171.352C37.8968 169.519 38.7975 167.834 40.1199 166.512L54.7035 151.929C55.577 151.032 56.6199 150.318 57.7717 149.827C58.9235 149.337 60.1612 149.08 61.4131 149.072C62.6649 149.063 63.906 149.304 65.0641 149.779C66.2223 150.255 67.2745 150.955 68.1597 151.84C69.0449 152.726 69.7455 153.778 70.2207 154.936C70.696 156.094 70.9365 157.335 70.9283 158.587C70.92 159.839 70.6632 161.077 70.1727 162.228C69.6823 163.38 68.9679 164.423 68.0711 165.296L53.4875 179.88C52.6106 180.76 51.5685 181.457 50.4211 181.933C49.2737 182.409 48.0436 182.653 46.8016 182.652V182.652ZM199.375 119.453H178.75C176.243 119.453 173.838 118.457 172.066 116.684C170.293 114.912 169.297 112.507 169.297 110C169.297 107.493 170.293 105.088 172.066 103.316C173.838 101.543 176.243 100.547 178.75 100.547H199.375C201.882 100.547 204.287 101.543 206.059 103.316C207.832 105.088 208.828 107.493 208.828 110C208.828 112.507 207.832 114.912 206.059 116.684C204.287 118.457 201.882 119.453 199.375 119.453ZM41.25 119.453H20.625C18.1179 119.453 15.7134 118.457 13.9406 116.684C12.1678 114.912 11.1719 112.507 11.1719 110C11.1719 107.493 12.1678 105.088 13.9406 103.316C15.7134 101.543 18.1179 100.547 20.625 100.547H41.25C43.7571 100.547 46.1616 101.543 47.9344 103.316C49.7072 105.088 50.7031 107.493 50.7031 110C50.7031 112.507 49.7072 114.912 47.9344 116.684C46.1616 118.457 43.7571 119.453 41.25 119.453ZM173.198 182.652C171.956 182.653 170.726 182.409 169.579 181.933C168.432 181.457 167.389 180.76 166.512 179.88L151.929 165.296C150.195 163.516 149.231 161.124 149.248 158.638C149.264 156.153 150.259 153.774 152.016 152.016C153.774 150.259 156.153 149.264 158.638 149.248C161.124 149.231 163.516 150.195 165.296 151.929L179.88 166.512C181.202 167.834 182.103 169.519 182.468 171.352C182.834 173.186 182.647 175.087 181.931 176.814C181.216 178.542 180.005 180.019 178.45 181.058C176.896 182.097 175.068 182.651 173.198 182.652V182.652ZM61.3852 70.8383C60.1439 70.8407 58.9145 70.5974 57.7678 70.1225C56.621 69.6476 55.5796 68.9504 54.7035 68.0711L40.1199 53.4875C38.3857 51.707 37.4225 49.315 37.4388 46.8295C37.4552 44.344 38.4498 41.9649 40.2074 40.2074C41.9649 38.4498 44.344 37.4552 46.8295 37.4388C49.315 37.4225 51.707 38.3857 53.4875 40.1199L68.0711 54.7035C69.3923 56.0258 70.2918 57.7101 70.656 59.5435C71.0202 61.3769 70.8326 63.2771 70.117 65.004C69.4015 66.7308 68.19 68.2067 66.6358 69.2452C65.0816 70.2837 63.2544 70.8381 61.3852 70.8383V70.8383ZM110 153.828C101.332 153.828 92.8579 151.258 85.6504 146.442C78.4429 141.626 72.8253 134.781 69.5081 126.772C66.1908 118.764 65.3229 109.951 67.014 101.45C68.7051 92.9477 72.8794 85.1383 79.0088 79.0088C85.1383 72.8794 92.9477 68.7051 101.45 67.014C109.951 65.3229 118.764 66.1908 126.772 69.5081C134.781 72.8253 141.626 78.4429 146.442 85.6504C151.258 92.8579 153.828 101.332 153.828 110C153.814 121.62 149.193 132.76 140.976 140.976C132.76 149.193 121.62 153.814 110 153.828V153.828Z" fill="black"/>
</svg>
