<svg width="220" height="220" viewBox="0 0 220 220" fill="none" xmlns="http://www.w3.org/2000/svg">
<path d="M55.3996 120.312L55.2879 120.184C54.9012 119.866 54.5016 119.569 54.0977 119.281L55.3996 120.312ZM164.605 120.312L165.73 119.402C165.391 119.651 165.056 119.904 164.725 120.171L164.605 120.312Z" fill="black"/>
<path d="M199.006 80.1109C192.15 63.5957 180.84 49.3105 166.337 38.8497C151.834 28.3889 134.71 22.164 116.875 20.8699V13.75H103.125V20.8699C78.8348 22.5667 56.0949 33.4238 39.5035 51.2459C22.9122 69.0681 13.7073 92.5255 13.7501 116.875V126.552L19.0138 121.735C23.5802 117.199 29.6209 114.45 36.0403 113.987C42.4597 113.523 48.8326 115.376 54.0033 119.208L54.0978 119.281C54.5017 119.569 54.9013 119.866 55.288 120.184C55.8867 120.668 56.4597 121.185 57.0068 121.735L61.8751 126.599L66.7349 121.735C71.3041 117.206 77.3455 114.465 83.7628 114.009C90.1801 113.553 96.5482 115.413 101.711 119.251L103.125 120.312V185.625C103.125 187.448 102.401 189.197 101.112 190.486C99.8222 191.776 98.0735 192.5 96.2502 192.5C94.4268 192.5 92.6781 191.776 91.3888 190.486C90.0995 189.197 89.3752 187.448 89.3752 185.625V178.75H75.6252V185.625C75.6252 191.095 77.7981 196.341 81.6661 200.209C85.534 204.077 90.7801 206.25 96.2502 206.25C101.72 206.25 106.966 204.077 110.834 200.209C114.702 196.341 116.875 191.095 116.875 185.625V120.312L118.289 119.251C123.452 115.413 129.82 113.553 136.238 114.009C142.655 114.465 148.696 117.206 153.265 121.735L158.125 126.599L162.985 121.735C163.544 121.179 164.124 120.658 164.725 120.171C165.056 119.904 165.391 119.651 165.731 119.402L165.842 119.311C176.426 111.375 191.624 112.38 200.995 121.735L206.25 126.547V116.875C206.271 104.264 203.81 91.7715 199.006 80.1109V80.1109Z" fill="black"/>
</svg>
