<svg width="21" height="21" viewBox="0 0 21 21" fill="none" xmlns="http://www.w3.org/2000/svg">
<path d="M17.667 3.81665H13.917V2.87915C13.917 2.46475 13.7524 2.06732 13.4593 1.7743C13.1663 1.48127 12.7689 1.31665 12.3545 1.31665H9.22949C8.81509 1.31665 8.41766 1.48127 8.12464 1.7743C7.83161 2.06732 7.66699 2.46475 7.66699 2.87915V3.81665H3.91699C3.75123 3.81665 3.59226 3.8825 3.47505 3.99971C3.35784 4.11692 3.29199 4.27589 3.29199 4.44165C3.29199 4.60741 3.35784 4.76638 3.47505 4.88359C3.59226 5.0008 3.75123 5.06665 3.91699 5.06665H4.58105L5.32324 16.9776C5.37871 18.0264 6.18262 18.8167 7.19824 18.8167H14.3857C15.4064 18.8167 16.1943 18.044 16.2607 16.9807L17.0029 5.06665H17.667C17.8328 5.06665 17.9917 5.0008 18.1089 4.88359C18.2261 4.76638 18.292 4.60741 18.292 4.44165C18.292 4.27589 18.2261 4.11692 18.1089 3.99971C17.9917 3.8825 17.8328 3.81665 17.667 3.81665ZM8.31426 16.3167H8.29199C8.13002 16.3168 7.97433 16.254 7.85774 16.1415C7.74115 16.0291 7.67276 15.8758 7.66699 15.7139L7.35449 6.96392C7.34859 6.79816 7.40877 6.63684 7.52181 6.51545C7.63484 6.39407 7.79147 6.32256 7.95723 6.31665C8.12299 6.31075 8.2843 6.37093 8.40569 6.48396C8.52708 6.597 8.59859 6.75362 8.60449 6.91938L8.91699 15.6694C8.91997 15.7515 8.90673 15.8333 8.87805 15.9103C8.84936 15.9873 8.80578 16.0578 8.7498 16.118C8.69382 16.1781 8.62654 16.2266 8.55181 16.2607C8.47707 16.2948 8.39635 16.3138 8.31426 16.3167ZM11.417 15.6917C11.417 15.8574 11.3511 16.0164 11.2339 16.1336C11.1167 16.2508 10.9578 16.3167 10.792 16.3167C10.6262 16.3167 10.4673 16.2508 10.3501 16.1336C10.2328 16.0164 10.167 15.8574 10.167 15.6917V6.94165C10.167 6.77589 10.2328 6.61692 10.3501 6.49971C10.4673 6.3825 10.6262 6.31665 10.792 6.31665C10.9578 6.31665 11.1167 6.3825 11.2339 6.49971C11.3511 6.61692 11.417 6.77589 11.417 6.94165V15.6917ZM12.667 3.81665H8.91699V2.87915C8.91652 2.83798 8.92428 2.79713 8.93982 2.75901C8.95536 2.72088 8.97836 2.68624 9.00747 2.65713C9.03658 2.62802 9.07122 2.60502 9.10935 2.58948C9.14748 2.57394 9.18832 2.56618 9.22949 2.56665H12.3545C12.3957 2.56618 12.4365 2.57394 12.4746 2.58948C12.5128 2.60502 12.5474 2.62802 12.5765 2.65713C12.6056 2.68624 12.6286 2.72088 12.6442 2.75901C12.6597 2.79713 12.6675 2.83798 12.667 2.87915V3.81665ZM13.917 15.7139C13.9112 15.8758 13.8428 16.0291 13.7262 16.1415C13.6097 16.254 13.454 16.3168 13.292 16.3167H13.2693C13.1873 16.3137 13.1066 16.2947 13.0319 16.2605C12.9572 16.2264 12.89 16.1779 12.834 16.1178C12.7781 16.0577 12.7346 15.9872 12.7059 15.9102C12.6772 15.8333 12.664 15.7514 12.667 15.6694L12.9795 6.91938C12.9824 6.83731 13.0015 6.75661 13.0356 6.6819C13.0697 6.60719 13.1182 6.53993 13.1783 6.48396C13.2384 6.428 13.3089 6.38441 13.3859 6.35571C13.4628 6.327 13.5447 6.31373 13.6268 6.31665C13.7088 6.31957 13.7895 6.33864 13.8642 6.37275C13.9389 6.40686 14.0062 6.45535 14.0622 6.51545C14.1181 6.57556 14.1617 6.6461 14.1904 6.72304C14.2191 6.79999 14.2324 6.88184 14.2295 6.96392L13.917 15.7139Z" fill="#365FAF"/>
</svg>
