<svg width="21" height="21" viewBox="0 0 21 21" fill="none" xmlns="http://www.w3.org/2000/svg">
<path d="M7.63477 10.8627H18.2988M12.6738 7.73767V6.17517C12.6738 5.76077 12.5092 5.36334 12.2162 5.07032C11.9232 4.77729 11.5257 4.61267 11.1113 4.61267H3.61133C3.19693 4.61267 2.7995 4.77729 2.50647 5.07032C2.21345 5.36334 2.04883 5.76077 2.04883 6.17517V15.5502C2.04883 15.9646 2.21345 16.362 2.50647 16.655C2.7995 16.9481 3.19693 17.1127 3.61133 17.1127H11.1113C11.5257 17.1127 11.9232 16.9481 12.2162 16.655C12.5092 16.362 12.6738 15.9646 12.6738 15.5502V13.9877V7.73767ZM15.1738 7.73767L18.2988 10.8627L15.1738 13.9877V7.73767Z" stroke="black" stroke-width="2" stroke-linecap="round" stroke-linejoin="round"/>
</svg>
