<svg width="12" height="12" viewBox="0 0 12 12" fill="none" xmlns="http://www.w3.org/2000/svg">
<path d="M7.3257 6.00001L11.0366 2.28907C11.2128 2.11326 11.3118 1.87469 11.312 1.62584C11.3123 1.37699 11.2136 1.13824 11.0378 0.962118C10.862 0.785998 10.6234 0.686931 10.3746 0.686711C10.1257 0.686492 9.88697 0.785137 9.71085 0.960946L5.99992 4.67188L2.28898 0.960946C2.11286 0.784826 1.87399 0.685883 1.62492 0.685883C1.37585 0.685883 1.13698 0.784826 0.960855 0.960946C0.784735 1.13707 0.685791 1.37594 0.685791 1.62501C0.685791 1.87408 0.784735 2.11295 0.960855 2.28907L4.67179 6.00001L0.960855 9.71095C0.784735 9.88707 0.685791 10.1259 0.685791 10.375C0.685791 10.6241 0.784735 10.863 0.960855 11.0391C1.13698 11.2152 1.37585 11.3141 1.62492 11.3141C1.87399 11.3141 2.11286 11.2152 2.28898 11.0391L5.99992 7.32813L9.71085 11.0391C9.88697 11.2152 10.1258 11.3141 10.3749 11.3141C10.624 11.3141 10.8629 11.2152 11.039 11.0391C11.2151 10.863 11.314 10.6241 11.314 10.375C11.314 10.1259 11.2151 9.88707 11.039 9.71095L7.3257 6.00001Z" fill="#5880D1"/>
</svg>
