<svg width="55" height="42" viewBox="0 0 55 42" fill="none" xmlns="http://www.w3.org/2000/svg">
  <path d="M9.75 11.9375V29.4375M44.75 40.4201L49.5529 40.375C50.5983 40.3703 51.5996 39.953 52.3388 39.2138C53.078 38.4746 53.4953 37.4733 53.5 36.4279V4.94707C53.4953 3.90168 53.078 2.90044 52.3388 2.16124C51.5996 1.42203 50.5983 1.00468 49.5529 1L44.75 1.04512V40.4201ZM9.75 1L4.71875 1.04512C2.54766 1.04512 1 2.82246 1 4.99219V36.4744C1 38.6441 2.54766 40.4201 4.71875 40.4201L9.75 40.375V1ZM44.75 11.9375V29.4375V11.9375ZM36 7.5625V33.8125V7.5625ZM27.25 9.75V31.625V9.75ZM18.5 7.5625V33.8125V7.5625Z" stroke="black" stroke-width="2" stroke-linecap="round" stroke-linejoin="round"/>
</svg>
