<svg width="25" height="24" viewBox="0 0 25 24" fill="none" xmlns="http://www.w3.org/2000/svg">
<path d="M11.1237 22.5H14.0912M10.3819 20.25H14.8331M12.6075 18V12M14.8331 18V16.875C14.8331 15.5156 16.2954 14.2298 17.2441 13.3125C18.5813 12.0202 19.2842 10.2839 19.2842 8.25C19.2842 4.5 16.3293 1.5 12.6075 1.5C11.73 1.49753 10.8606 1.67043 10.0495 2.00878C9.23831 2.34712 8.5013 2.84423 7.88081 3.47151C7.26033 4.0988 6.76862 4.8439 6.43394 5.66396C6.09927 6.48403 5.92824 7.36289 5.93069 8.25C5.93069 10.2113 6.66374 12.0652 7.97081 13.3125C8.91437 14.213 10.3819 15.5016 10.3819 16.875V18H14.8331Z" stroke="black" stroke-width="2" stroke-linecap="round" stroke-linejoin="round"/>
<path d="M14.3686 11.25C14.3686 11.25 13.3712 12 12.6067 12C11.8421 12 10.8447 11.25 10.8447 11.25" stroke="black" stroke-width="2" stroke-linecap="round" stroke-linejoin="round"/>
</svg>
